<svg width="50" height="40" viewBox="0 0 50 40" fill="none" xmlns="http://www.w3.org/2000/svg">
<path d="M27.0078 3.77431L27.9688 2.69618C28.3906 2.21962 29.0078 2.00868 29.6016 2.00087C30.1641 2.00087 30.7187 2.20399 31.1562 2.61024C32.6953 4.03993 34.2656 5.98524 35.4531 8.12587C36.6406 10.2509 37.5 12.6727 37.5 15.0165C37.5 21.9384 31.9297 27.5009 25 27.5009C18 27.5009 12.5 21.9306 12.5 15.0165C12.5 12.1024 13.75 9.28212 15.375 6.85243C17.0078 4.40712 19.0859 2.24306 20.9141 0.586806C21.3594 0.180556 21.9297 -0.0147569 22.5 0.000868056C23.6016 0.0243056 24.3594 0.891493 25.0547 1.68837C25.2109 1.86806 25.3672 2.04774 25.5234 2.21181L27.0078 3.76649V3.77431ZM30 18.7665C30 15.9149 27.1094 13.0634 25.7188 11.8602C25.2969 11.4931 24.6953 11.4931 24.2734 11.8602C22.8906 13.0556 20 15.9071 20 18.7665C20 21.5243 22.2422 23.7665 25 23.7665C27.7578 23.7665 30 21.5243 30 18.7665ZM2.5 22.5009C2.5 21.1181 3.61719 20.0009 5 20.0009H7.5C8.88281 20.0009 10 21.1181 10 22.5009C10 23.8837 8.88281 25.0009 7.5 25.0009V30.0009H42.5V25.0009C41.1172 25.0009 40 23.8837 40 22.5009C40 21.1181 41.1172 20.0009 42.5 20.0009H45C46.3828 20.0009 47.5 21.1181 47.5 22.5009V30.0009C48.8828 30.0009 50 31.1181 50 32.5009V37.5009C50 38.8837 48.8828 40.0009 47.5 40.0009H2.5C1.11719 40.0009 0 38.8837 0 37.5009V32.5009C0 31.1181 1.11719 30.0009 2.5 30.0009V22.5009ZM25 37.5009C25.663 37.5009 26.2989 37.2375 26.7678 36.7686C27.2366 36.2998 27.5 35.6639 27.5 35.0009C27.5 34.3378 27.2366 33.7019 26.7678 33.2331C26.2989 32.7643 25.663 32.5009 25 32.5009C24.337 32.5009 23.7011 32.7643 23.2322 33.2331C22.7634 33.7019 22.5 34.3378 22.5 35.0009C22.5 35.6639 22.7634 36.2998 23.2322 36.7686C23.7011 37.2375 24.337 37.5009 25 37.5009ZM37.5 35.0009C37.5 34.3378 37.2366 33.7019 36.7678 33.2331C36.2989 32.7643 35.663 32.5009 35 32.5009C34.337 32.5009 33.7011 32.7643 33.2322 33.2331C32.7634 33.7019 32.5 34.3378 32.5 35.0009C32.5 35.6639 32.7634 36.2998 33.2322 36.7686C33.7011 37.2375 34.337 37.5009 35 37.5009C35.663 37.5009 36.2989 37.2375 36.7678 36.7686C37.2366 36.2998 37.5 35.6639 37.5 35.0009ZM15 37.5009C15.663 37.5009 16.2989 37.2375 16.7678 36.7686C17.2366 36.2998 17.5 35.6639 17.5 35.0009C17.5 34.3378 17.2366 33.7019 16.7678 33.2331C16.2989 32.7643 15.663 32.5009 15 32.5009C14.337 32.5009 13.7011 32.7643 13.2322 33.2331C12.7634 33.7019 12.5 34.3378 12.5 35.0009C12.5 35.6639 12.7634 36.2998 13.2322 36.7686C13.7011 37.2375 14.337 37.5009 15 37.5009Z" fill="black"/>
</svg>
