<svg width="35" height="40" viewBox="0 0 35 40" fill="none" xmlns="http://www.w3.org/2000/svg">
<path d="M16.4531 0.460938L4.84375 13.2344C4.53906 13.5625 4.375 14 4.375 14.4453C4.375 15.4453 5.17969 16.25 6.17969 16.25H8.125L2.39063 21.9844C2.0625 22.3125 1.875 22.7656 1.875 23.2344C1.875 24.2109 2.66406 25 3.64062 25H6.25L0.421875 31.9922C0.148438 32.3203 0 32.7344 0 33.1641C0 34.1797 0.820312 35 1.83594 35H15V37.5C15 38.8828 16.1172 40 17.5 40C18.8828 40 20 38.8828 20 37.5V35H33.1641C34.1797 35 35 34.1797 35 33.1641C35 32.7344 34.8516 32.3203 34.5781 31.9922L28.75 25H31.3594C32.3359 25 33.125 24.2109 33.125 23.2344C33.125 22.7656 32.9375 22.3125 32.6094 21.9844L26.875 16.25H28.8203C29.8125 16.25 30.625 15.4453 30.625 14.4453C30.625 14 30.4609 13.5625 30.1562 13.2344L18.5469 0.460938C18.2812 0.164063 17.8984 0 17.5 0C17.1016 0 16.7188 0.164063 16.4531 0.460938Z" fill="black"/>
</svg>
